<?xml version="1.0" encoding="utf-8"?>
<!-- Generator: Adobe Illustrator 14.0.0, SVG Export Plug-In . SVG Version: 6.00 Build 43363)  -->
<!DOCTYPE svg PUBLIC "-//W3C//DTD SVG 1.1//EN" "http://www.w3.org/Graphics/SVG/1.1/DTD/svg11.dtd">
<svg version="1.1" xmlns="http://www.w3.org/2000/svg" xmlns:xlink="http://www.w3.org/1999/xlink" x="0px" y="0px" width="36px"
	 height="36px" viewBox="0 0 36 36" enable-background="new 0 0 36 36" xml:space="preserve">
<g id="Layer_1">
	<rect fill="#286BA3" width="36" height="36"/>
</g>
<g id="Layer_2">
	<g>
		<path fill="#FFFFFF" d="M34.586,33.184l-4.477-11.158c-0.065-0.166-0.2-0.297-0.371-0.363l-6.66-2.611
			c-0.151-0.059-0.32-0.062-0.475-0.011l-0.243,0.083c1.978-2.966,4.232-6.972,4.232-9.831c0-4.053-3.432-7.351-7.651-7.351
			s-7.652,3.297-7.652,7.35c0,3.502,3.411,8.725,5.542,11.646l-6.476-2.106c-0.243-0.078-0.515-0.016-0.694,0.162l-8.153,8.088
			c-0.144,0.143-0.21,0.34-0.182,0.535c0.028,0.195,0.149,0.369,0.327,0.467l10.595,5.881c0,0,0,0,0.001,0l0.009,0.006
			c0.007,0.004,0.015,0.006,0.021,0.01c0.029,0.014,0.059,0.029,0.091,0.041c0.008,0.002,0.018,0.004,0.026,0.006
			c0.012,0.004,0.023,0.006,0.035,0.008c0.041,0.012,0.081,0.018,0.122,0.02c0.008,0,0.016,0.002,0.024,0.002
			c0.005,0,0.009,0.002,0.015,0.002c0.014,0,0.026-0.006,0.04-0.006c0.045-0.004,0.09-0.01,0.134-0.021
			c0.022-0.006,0.042-0.014,0.063-0.02c0.02-0.008,0.04-0.012,0.059-0.02l9.282-4.41c0.062,0.021,0.128,0.037,0.196,0.039
			c0.009,0.002,0.018,0.002,0.025,0.002c0.053,0,0.104-0.008,0.152-0.02l11.162,4.406c0.081,0.033,0.168,0.047,0.254,0.047
			c0.172,0,0.34-0.062,0.467-0.184C34.62,33.695,34.682,33.424,34.586,33.184z M17.34,15.824c0-0.875,0.752-1.614,1.645-1.614
			c0.91,0,1.68,0.739,1.68,1.614c0,0.857-0.77,1.582-1.68,1.582C18.092,17.405,17.34,16.681,17.34,15.824z M15.763,7.215
			c-0.14-0.118-0.122-0.319,0-0.438c0,0,1.296-1.48,3.555-1.48c1.854,0,3.57,1.245,3.57,2.943c0,2.219-2.625,2.286-2.625,4.102
			c0,0.185-0.158,0.32-0.333,0.32h-1.873c-0.176,0-0.332-0.134-0.332-0.32v-0.706c0-1.413,2.416-2.035,2.416-3.11
			c0-0.522-0.561-0.993-1.313-0.993c-1.226,0-1.558,1.06-1.996,0.69L15.763,7.215z M12.11,28.082
			c0.436,0.154,0.892,0.27,1.355,0.338c0.018,0.002,0.034,0.004,0.051,0.004c0.091,0,0.174-0.039,0.235-0.098l-1.52,4.146
			l-9.166-5.088l4.132-4.1c0.096,0.207,0.232,0.48,0.415,0.799c0.061,0.105,0.175,0.166,0.292,0.166c0.055,0,0.11-0.014,0.162-0.041
			c0.161-0.086,0.22-0.281,0.131-0.436c-0.258-0.449-0.419-0.809-0.495-0.988l2.626-2.605l5.726,1.861l-2.211,6.033
			c-0.013-0.143-0.121-0.268-0.276-0.289c-0.418-0.062-0.831-0.166-1.225-0.307c-0.172-0.061-0.365,0.023-0.43,0.191
			C11.848,27.834,11.937,28.02,12.11,28.082z M21.921,24.029c-0.127,0.104-0.16,0.281-0.065,0.418
			c0.014,0.02,0.03,0.037,0.047,0.053l-0.151,3.85l-7.98,3.791l3.664-9.994l0.24-0.082c0.456,0.596,0.765,0.975,0.822,1.045
			c0.115,0.139,0.29,0.221,0.476,0.221h0.001c0.187-0.002,0.362-0.084,0.476-0.223c0.088-0.107,0.77-0.951,1.677-2.207l0.933-0.314
			L21.921,24.029z M23.085,28.428l0.171-4.293c0.054-0.012,0.108-0.025,0.163-0.035c0.182-0.031,0.3-0.199,0.267-0.373
			c-0.035-0.176-0.209-0.289-0.391-0.258c-0.005,0.002-0.009,0.002-0.014,0.004l0.115-2.909l5.569,2.183l3.814,9.508L23.085,28.428z
			"/>
		<path fill="#FFFFFF" d="M9.5,25.551c-0.123-0.131-0.334-0.143-0.472-0.025C8.89,25.645,8.877,25.848,9,25.98
			c0.316,0.34,0.653,0.65,1,0.924c0.062,0.049,0.137,0.072,0.211,0.072c0.097,0,0.193-0.039,0.258-0.117
			c0.118-0.137,0.096-0.34-0.046-0.451C10.104,26.154,9.792,25.867,9.5,25.551z"/>
		<path fill="#FFFFFF" d="M16.916,27.053c-0.404,0.17-0.813,0.32-1.216,0.445c-0.176,0.055-0.272,0.234-0.216,0.404
			c0.045,0.137,0.177,0.223,0.318,0.223c0.035,0,0.068-0.006,0.103-0.016c0.424-0.131,0.855-0.289,1.28-0.471
			c0.169-0.07,0.246-0.26,0.171-0.422C17.282,27.055,17.085,26.98,16.916,27.053z"/>
		<path fill="#FFFFFF" d="M20.036,25.312c-0.396,0.266-0.755,0.496-1.1,0.701c-0.157,0.094-0.204,0.293-0.106,0.443
			c0.063,0.098,0.174,0.15,0.285,0.15c0.06,0,0.121-0.016,0.176-0.049c0.354-0.211,0.724-0.447,1.129-0.719
			c0.15-0.102,0.188-0.303,0.082-0.447C20.396,25.246,20.188,25.211,20.036,25.312z"/>
	</g>
</g>
</svg>
