<?xml version="1.0" encoding="utf-8"?>
<!-- Generator: Adobe Illustrator 14.0.0, SVG Export Plug-In . SVG Version: 6.00 Build 43363)  -->
<!DOCTYPE svg PUBLIC "-//W3C//DTD SVG 1.1//EN" "http://www.w3.org/Graphics/SVG/1.1/DTD/svg11.dtd">
<svg version="1.1" xmlns="http://www.w3.org/2000/svg" xmlns:xlink="http://www.w3.org/1999/xlink" x="0px" y="0px" width="36px"
	 height="36px" viewBox="0 0 36 36" enable-background="new 0 0 36 36" xml:space="preserve">
<g id="Layer_1">
	<rect fill="#286BA3" width="36" height="36"/>
</g>
<g id="Layer_2">
	<g>
		<path fill="#FFFFFF" d="M3.779,12.182v19.362c0,1.445,1.158,2.617,2.585,2.617h23.272c1.428,0,2.584-1.172,2.584-2.617V12.182
			H3.779z M10.89,32.22H5.718v-5.169h5.172V32.22z M10.89,25.756H5.718v-5.171h5.172V25.756z M10.89,19.293H5.718v-5.171h5.172
			V19.293z M17.353,32.22h-5.171v-5.169h5.171V32.22z M17.353,25.756h-5.171v-5.171h5.171V25.756z M17.353,19.293h-5.171v-5.171
			h5.171V19.293z M23.818,32.22h-5.171v-5.169h5.171V32.22z M23.818,25.756h-5.171v-5.171h5.171V25.756z M23.818,19.293h-5.171
			v-5.171h5.171V19.293z M30.283,32.22h-5.174v-5.169h5.174V32.22z M30.283,25.756h-5.174v-5.171h5.174V25.756z M30.283,19.293
			h-5.174v-5.171h5.174V19.293z"/>
		<path fill="#FFFFFF" d="M29.637,5.717h-4.203V2.809c0-0.535-0.434-0.969-0.971-0.969c-0.535,0-0.969,0.434-0.969,0.969v2.909
			H12.506V2.809c0-0.535-0.435-0.969-0.97-0.969c-0.537,0-0.97,0.434-0.97,0.969v2.909H6.364c-1.428,0-2.585,1.172-2.585,2.616
			v2.233l0,0v0.322h28.442v-0.322l0,0V8.333C32.221,6.889,31.064,5.717,29.637,5.717z M11.536,10.243
			c-1.071,0-1.939-0.868-1.939-1.939c0-0.717,0.391-1.342,0.97-1.678v1.678c0,0.536,0.433,0.969,0.97,0.969
			c0.535,0,0.97-0.434,0.97-0.969V6.625c0.579,0.335,0.969,0.961,0.969,1.678C13.475,9.375,12.607,10.243,11.536,10.243z
			 M24.463,10.243c-1.07,0-1.938-0.868-1.938-1.939c0-0.717,0.391-1.342,0.969-1.678v1.678c0,0.536,0.434,0.969,0.969,0.969
			c0.537,0,0.971-0.434,0.971-0.969V6.625c0.58,0.335,0.971,0.961,0.971,1.678C26.404,9.375,25.535,10.243,24.463,10.243z"/>
	</g>
</g>
</svg>
