<?xml version="1.0" encoding="utf-8"?>
<!-- Generator: Adobe Illustrator 14.0.0, SVG Export Plug-In . SVG Version: 6.00 Build 43363)  -->
<!DOCTYPE svg PUBLIC "-//W3C//DTD SVG 1.1//EN" "http://www.w3.org/Graphics/SVG/1.1/DTD/svg11.dtd">
<svg version="1.1" id="Layer_1" xmlns="http://www.w3.org/2000/svg" xmlns:xlink="http://www.w3.org/1999/xlink" x="0px" y="0px"
	 width="87.87px" height="28.35px" viewBox="0 0 87.87 28.35" enable-background="new 0 0 87.87 28.35" xml:space="preserve">
<path fill="#286BA3" d="M2.75,24.264l3.581-1.179V5.793L2.75,4.615V24.264z M7.514,25.336l3.729-1.228V4.771L7.514,3.543V25.336z
	 M12.499,2.425v24.028l15.349-3.886V6.312L12.499,2.425z"/>
<path fill="#286BA3" d="M86.24,17.87c0,3.131-2.312,5.67-5.166,5.67H36.167c-2.854,0-5.167-2.539-5.167-5.67v-7.391
	c0-3.131,2.313-5.669,5.167-5.669h44.908c2.854,0,5.166,2.538,5.166,5.669V17.87z"/>
<text transform="matrix(1 0 0 1 33 20.0508)" fill="#FFFFFF" font-family="'PraxisLTPro-Bold'" font-size="17">DIAPO</text>
</svg>
