<?xml version="1.0" encoding="utf-8"?>
<!-- Generator: Adobe Illustrator 14.0.0, SVG Export Plug-In . SVG Version: 6.00 Build 43363)  -->
<!DOCTYPE svg PUBLIC "-//W3C//DTD SVG 1.1//EN" "http://www.w3.org/Graphics/SVG/1.1/DTD/svg11.dtd">
<svg version="1.1" id="Layer_1" xmlns="http://www.w3.org/2000/svg" xmlns:xlink="http://www.w3.org/1999/xlink" x="0px" y="0px"
	 width="87.87px" height="28.35px" viewBox="0 0 87.87 28.35" enable-background="new 0 0 87.87 28.35" xml:space="preserve">
<path fill="#286BA3" d="M86.431,17.779c0,3.131-2.538,5.67-5.669,5.67H31.48c-3.131,0-5.669-2.539-5.669-5.67v-7.391
	c0-3.131,2.538-5.669,5.669-5.669h49.282c3.131,0,5.669,2.538,5.669,5.669V17.779z"/>
<g>
	<circle fill="#286BA3" cx="15.598" cy="5.574" r="4.301"/>
	<circle fill="#286BA3" cx="6.997" cy="5.574" r="4.301"/>
	<polygon fill="#286BA3" points="5.091,27.075 6.694,27.075 10.552,19.36 10.552,27.075 11.984,27.075 11.984,19.36 15.842,27.075 
		17.445,27.075 13.061,18.305 13.061,16.325 17.002,16.325 17.002,14.891 22.736,16.683 22.736,9.515 17.002,11.307 17.002,9.874 
		5.534,9.874 5.534,16.325 9.477,16.325 9.477,18.305 	"/>
</g>
<text transform="matrix(1 0 0 1 28.6665 20.7168)" fill="#FFFFFF" font-family="'PraxisLTPro-Bold'" font-size="18.3896">VIDEO</text>
</svg>
